<?xml version="1.0" encoding="utf-8"?>
<svg width="367" height="348" viewBox="0 0 367 348" fill="none" xmlns="http://www.w3.org/2000/svg">
  <defs>
    <path id="path_1" d="M350 0C352.762 0 355 2.2382 355 5L355 331C355 333.762 352.762 336 350 336L5 336C2.23819 336 0 333.762 0 331L0 5C0 2.2382 2.23819 0 5 0L350 0Z" />
    <filter color-interpolation-filters="sRGB" x="-353" y="-334" width="355" height="336" id="filter_2">
      <feFlood flood-opacity="0" result="BackgroundImageFix_1" />
      <feColorMatrix type="matrix" values="0 0 0 0 0 0 0 0 0 0 0 0 0 0 0 0 0 0 1 0" in="SourceAlpha" />
      <feOffset dx="0" dy="0" />
      <feGaussianBlur stdDeviation="2" />
      <feColorMatrix type="matrix" values="0 0 0 0 0 0 0 0 0 0 0 0 0 0 0 0 0 0 0.251 0" />
      <feBlend mode="normal" in2="BackgroundImageFix_1" result="Shadow_2" />
      <feBlend mode="normal" in="SourceGraphic" in2="Shadow_2" result="Shape_3" />
    </filter>
    <clipPath id="clip_path_3">
      <rect width="355" height="336" rx="5" />
    </clipPath>
    <clipPath id="clip_path_4">
      <rect width="295" height="300" />
    </clipPath>
    <filter color-interpolation-filters="sRGB" x="-132" y="-174" width="134" height="176" id="filter_5">
      <feFlood flood-opacity="0" result="BackgroundImageFix_1" />
      <feColorMatrix type="matrix" values="0 0 0 0 0 0 0 0 0 0 0 0 0 0 0 0 0 0 1 0" in="SourceAlpha" />
      <feOffset dx="4" dy="4" />
      <feColorMatrix type="matrix" values="0 0 0 0 0 0 0 0 0 0 0 0 0 0 0 0 0 0 0.251 0" />
      <feBlend mode="normal" in2="BackgroundImageFix_1" result="Shadow_2" />
      <feBlend mode="normal" in="SourceGraphic" in2="Shadow_2" result="Shape_3" />
    </filter>
    <filter color-interpolation-filters="sRGB" x="-80" y="-174" width="82" height="176" id="filter_6">
      <feFlood flood-opacity="0" result="BackgroundImageFix_1" />
      <feColorMatrix type="matrix" values="0 0 0 0 0 0 0 0 0 0 0 0 0 0 0 0 0 0 1 0" in="SourceAlpha" />
      <feOffset dx="4" dy="4" />
      <feColorMatrix type="matrix" values="0 0 0 0 0 0 0 0 0 0 0 0 0 0 0 0 0 0 0.251 0" />
      <feBlend mode="normal" in2="BackgroundImageFix_1" result="Shadow_2" />
      <feBlend mode="normal" in="SourceGraphic" in2="Shadow_2" result="Shape_3" />
    </filter>
    <filter color-interpolation-filters="sRGB" x="-83" y="-174" width="85" height="176" id="filter_7">
      <feFlood flood-opacity="0" result="BackgroundImageFix_1" />
      <feColorMatrix type="matrix" values="0 0 0 0 0 0 0 0 0 0 0 0 0 0 0 0 0 0 1 0" in="SourceAlpha" />
      <feOffset dx="4" dy="4" />
      <feColorMatrix type="matrix" values="0 0 0 0 0 0 0 0 0 0 0 0 0 0 0 0 0 0 0.251 0" />
      <feBlend mode="normal" in2="BackgroundImageFix_1" result="Shadow_2" />
      <feBlend mode="normal" in="SourceGraphic" in2="Shadow_2" result="Shape_3" />
    </filter>
    <filter color-interpolation-filters="sRGB" x="-132" y="-174" width="134" height="176" id="filter_8">
      <feFlood flood-opacity="0" result="BackgroundImageFix_1" />
      <feColorMatrix type="matrix" values="0 0 0 0 0 0 0 0 0 0 0 0 0 0 0 0 0 0 1 0" in="SourceAlpha" />
      <feOffset dx="4" dy="4" />
      <feColorMatrix type="matrix" values="0 0 0 0 0 0 0 0 0 0 0 0 0 0 0 0 0 0 0.251 0" />
      <feBlend mode="normal" in2="BackgroundImageFix_1" result="Shadow_2" />
      <feBlend mode="normal" in="SourceGraphic" in2="Shadow_2" result="Shape_3" />
    </filter>
    <filter color-interpolation-filters="sRGB" x="-58" y="-38" width="60" height="40" id="filter_9">
      <feFlood flood-opacity="0" result="BackgroundImageFix_1" />
      <feColorMatrix type="matrix" values="0 0 0 0 0 0 0 0 0 0 0 0 0 0 0 0 0 0 1 0" in="SourceAlpha" />
      <feOffset dx="4" dy="4" />
      <feColorMatrix type="matrix" values="0 0 0 0 0 0 0 0 0 0 0 0 0 0 0 0 0 0 0.251 0" />
      <feBlend mode="normal" in2="BackgroundImageFix_1" result="Shadow_2" />
      <feBlend mode="normal" in="SourceGraphic" in2="Shadow_2" result="Shape_3" />
    </filter>
    <filter color-interpolation-filters="sRGB" x="-50" y="-50" width="52" height="52" id="filter_10">
      <feFlood flood-opacity="0" result="BackgroundImageFix_1" />
      <feColorMatrix type="matrix" values="0 0 0 0 0 0 0 0 0 0 0 0 0 0 0 0 0 0 1 0" in="SourceAlpha" />
      <feOffset dx="4" dy="4" />
      <feColorMatrix type="matrix" values="0 0 0 0 0 0 0 0 0 0 0 0 0 0 0 0 0 0 0.251 0" />
      <feBlend mode="normal" in2="BackgroundImageFix_1" result="Shadow_2" />
      <feBlend mode="normal" in="SourceGraphic" in2="Shadow_2" result="Shape_3" />
    </filter>
    <filter color-interpolation-filters="sRGB" x="-17" y="-37" width="19" height="39" id="filter_11">
      <feFlood flood-opacity="0" result="BackgroundImageFix_1" />
      <feColorMatrix type="matrix" values="0 0 0 0 0 0 0 0 0 0 0 0 0 0 0 0 0 0 1 0" in="SourceAlpha" />
      <feOffset dx="2" dy="2" />
      <feColorMatrix type="matrix" values="0 0 0 0 0 0 0 0 0 0 0 0 0 0 0 0 0 0 0.251 0" />
      <feBlend mode="normal" in2="BackgroundImageFix_1" result="Shadow_2" />
      <feBlend mode="normal" in="SourceGraphic" in2="Shadow_2" result="Shape_3" />
    </filter>
    <filter color-interpolation-filters="sRGB" x="-20" y="-37" width="22" height="39" id="filter_12">
      <feFlood flood-opacity="0" result="BackgroundImageFix_1" />
      <feColorMatrix type="matrix" values="0 0 0 0 0 0 0 0 0 0 0 0 0 0 0 0 0 0 1 0" in="SourceAlpha" />
      <feOffset dx="2" dy="2" />
      <feColorMatrix type="matrix" values="0 0 0 0 0 0 0 0 0 0 0 0 0 0 0 0 0 0 0.251 0" />
      <feBlend mode="normal" in2="BackgroundImageFix_1" result="Shadow_2" />
      <feBlend mode="normal" in="SourceGraphic" in2="Shadow_2" result="Shape_3" />
    </filter>
  </defs>
  <g clip-path="url(#clip_path_3)" transform="translate(6 6)" filter="url(#filter_2)">
    <use p3:href="#path_1" fill="#000000" fill-rule="evenodd" fill-opacity="0.051" xmlns:p3="http://www.w3.org/1999/xlink" />
    <use p3:href="#path_1" fill="#FFFFFF" fill-rule="evenodd" xmlns:p3="http://www.w3.org/1999/xlink" />
    <g clip-path="url(#clip_path_4)" transform="translate(35 11)">
      <g filter="url(#filter_5)" transform="translate(152 150)">
        <path d="M25.056 139.392L25.056 42.912L29.664 47.808L1.296 47.808L1.296 38.592L35.424 38.592L35.424 139.392L25.056 139.392ZM57.6 139.392L57.6 132.048L99.504 91.008Q105.264 85.392 108.144 81.144Q111.024 76.896 112.032 73.152Q113.04 69.408 113.04 66.096Q113.04 57.312 107.064 52.272Q101.088 47.232 89.424 47.232Q80.496 47.232 73.656 49.968Q66.816 52.704 61.92 58.464L54.576 52.128Q60.48 45.216 69.696 41.472Q78.912 37.728 90.288 37.728Q100.512 37.728 108 40.968Q115.488 44.208 119.592 50.4Q123.696 56.592 123.696 64.944Q123.696 69.84 122.328 74.592Q120.96 79.344 117.432 84.6Q113.904 89.856 107.136 96.48L68.688 134.208L65.808 130.176L128.304 130.176L128.304 139.392L57.6 139.392Z" fill="#000000" />
      </g>
      <g filter="url(#filter_6)" transform="translate(52 124)">
        <path d="M37.584 140.256Q26.64 140.256 16.92 136.728Q7.2 133.2 1.296 127.296L6.336 119.088Q11.232 124.128 19.512 127.44Q27.792 130.752 37.584 130.752Q50.112 130.752 56.808 125.28Q63.504 119.808 63.504 110.592Q63.504 101.376 56.952 95.904Q50.4 90.432 36.288 90.432L29.088 90.432L29.088 82.8L60.192 43.776L61.632 47.808L5.472 47.808L5.472 38.592L70.272 38.592L70.272 45.936L39.168 84.96L34.128 81.648L38.016 81.648Q56.16 81.648 65.16 89.712Q74.16 97.776 74.16 110.448Q74.16 118.944 70.128 125.712Q66.096 132.48 57.96 136.368Q49.824 140.256 37.584 140.256Z" fill="#757575" />
      </g>
      <g filter="url(#filter_7)" transform="translate(134 27)">
        <path d="M25.2 139.392L68.688 43.2L71.856 47.808L9.504 47.808L14.832 42.768L14.832 66.672L4.608 66.672L4.608 38.592L78.624 38.592L78.624 45.936L36.432 139.392L25.2 139.392Z" fill="#757575" />
      </g>
      <g filter="url(#filter_8)" transform="translate(0 -26)">
        <path d="M5.616 139.392L5.616 132.048L47.52 91.008Q53.28 85.392 56.16 81.144Q59.04 76.896 60.048 73.152Q61.056 69.408 61.056 66.096Q61.056 57.312 55.08 52.272Q49.104 47.232 37.44 47.232Q28.512 47.232 21.672 49.968Q14.832 52.704 9.936 58.464L2.592 52.128Q8.496 45.216 17.712 41.472Q26.928 37.728 38.304 37.728Q48.528 37.728 56.016 40.968Q63.504 44.208 67.608 50.4Q71.712 56.592 71.712 64.944Q71.712 69.84 70.344 74.592Q68.976 79.344 65.448 84.6Q61.92 89.856 55.152 96.48L16.704 134.208L13.824 130.176L76.32 130.176L76.32 139.392L5.616 139.392ZM106.848 139.392L106.848 42.912L111.456 47.808L83.088 47.808L83.088 38.592L117.216 38.592L117.216 139.392L106.848 139.392Z" fill="#000000" />
      </g>
      <path d="M30 0L60 40L0 40L30 0Z" fill="#000000" fill-rule="evenodd" filter="url(#filter_9)" transform="translate(202 7)" />
      <path d="M26 0L33.6412 15.4828L50.7275 17.9655L38.3637 30.0172L41.2824 47.0345L26 39L10.7176 47.0345L13.6363 30.0172L1.27253 17.9655L18.3588 15.4828L26 0Z" fill="#000000" fill-rule="evenodd" filter="url(#filter_10)" transform="translate(0 248)" />
      <g filter="url(#filter_11)" transform="translate(26 150)">
        <path d="M13.696 30.976L13.696 27.264L13.6 26.656L13.6 20.448Q13.6 18.304 12.4 17.152Q11.2 16 8.832 16Q7.2 16 5.728 16.544Q4.256 17.088 3.232 17.984L2.208 16.288Q3.488 15.2 5.28 14.608Q7.072 14.016 9.056 14.016Q12.32 14.016 14.096 15.632Q15.872 17.248 15.872 20.544L15.872 30.976L13.696 30.976ZM7.904 31.136Q6.016 31.136 4.624 30.512Q3.232 29.888 2.496 28.784Q1.76 27.68 1.76 26.24Q1.76 24.928 2.384 23.856Q3.008 22.784 4.432 22.128Q5.856 21.472 8.256 21.472L14.048 21.472L14.048 23.168L8.32 23.168Q5.888 23.168 4.944 24.032Q4 24.896 4 26.176Q4 27.616 5.12 28.48Q6.24 29.344 8.256 29.344Q10.176 29.344 11.568 28.464Q12.96 27.584 13.6 25.92L14.112 27.488Q13.472 29.152 11.888 30.144Q10.304 31.136 7.904 31.136Z" fill="#000000" />
      </g>
      <g filter="url(#filter_12)" transform="translate(223 62)">
        <path d="M11.84 31.136Q9.632 31.136 7.872 30.128Q6.112 29.12 5.088 27.2Q4.064 25.28 4.064 22.56Q4.064 19.808 5.104 17.904Q6.144 16 7.904 15.008Q9.664 14.016 11.84 14.016Q14.24 14.016 16.144 15.088Q18.048 16.16 19.136 18.08Q20.224 20 20.224 22.56Q20.224 25.088 19.136 27.024Q18.048 28.96 16.144 30.048Q14.24 31.136 11.84 31.136ZM3.168 30.976L3.168 7.232L5.44 7.232L5.44 19.136L5.12 22.528L5.344 25.92L5.344 30.976L3.168 30.976ZM11.68 29.12Q13.472 29.12 14.88 28.304Q16.288 27.488 17.12 26Q17.952 24.512 17.952 22.56Q17.952 20.576 17.12 19.104Q16.288 17.632 14.88 16.816Q13.472 16 11.68 16Q9.888 16 8.464 16.816Q7.04 17.632 6.224 19.104Q5.408 20.576 5.408 22.56Q5.408 24.512 6.224 26Q7.04 27.488 8.464 28.304Q9.888 29.12 11.68 29.12Z" fill="#000000" />
      </g>
    </g>
  </g>
</svg>